<svg width="70" height="71" viewBox="0 0 70 71" fill="none" xmlns="http://www.w3.org/2000/svg">
<path d="M62.3464 33.1847L37.5305 8.37009C36.1017 6.9406 33.7839 6.9406 32.3538 8.37009L27.2012 13.5239L33.7375 20.0602C35.2567 19.5468 36.9986 19.8913 38.2091 21.1025C39.427 22.321 39.7685 24.0777 39.2421 25.6025L45.5427 31.9025C47.0674 31.3767 48.8254 31.7169 50.0427 32.9361C51.7437 34.6371 51.7437 37.3934 50.0427 39.0957C48.3404 40.7973 45.5841 40.7973 43.8812 39.0957C42.6021 37.8152 42.2854 35.9348 42.9342 34.3587L37.0579 28.4831V43.9451C37.4724 44.1505 37.8639 44.4239 38.2091 44.7691C39.9101 46.4701 39.9101 49.2264 38.2091 50.9293C36.508 52.6297 33.7499 52.6297 32.0501 50.9293C30.3491 49.2258 30.3491 46.4695 32.0501 44.7691C32.4707 44.3491 32.9575 44.0311 33.4771 43.8183V28.2121C32.9575 27.9994 32.472 27.6845 32.0501 27.2614C30.7617 25.9736 30.4518 24.082 31.1124 22.4998L24.6689 16.055L7.65237 33.0697C6.22289 34.5004 6.22289 36.8181 7.65237 38.2476L32.4695 63.0629C33.8984 64.4924 36.2155 64.4924 37.6462 63.0629L62.3464 38.3627C63.7759 36.9332 63.7759 34.6142 62.3464 33.1847Z" fill="#F05133"/>
</svg>
