<svg width="71" height="71" viewBox="0 0 71 71" fill="none" xmlns="http://www.w3.org/2000/svg">
<g clip-path="url(#clip0)">
<path d="M57.1315 39.0778C55.0395 39.0888 53.2213 39.5926 51.6988 40.3374C51.1402 39.2312 50.5816 38.2454 50.4831 37.5225C50.3735 36.6791 50.2421 36.1643 50.3735 35.1567C50.505 34.149 51.0964 32.7142 51.0855 32.6046C51.0745 32.4951 50.954 31.9803 49.7492 31.9694C48.5444 31.9584 47.5039 32.1994 47.3834 32.517C47.2629 32.8347 47.0329 33.5576 46.8796 34.3023C46.6715 35.3976 44.4699 39.3078 43.2103 41.356C42.8051 40.5565 42.4546 39.8555 42.3779 39.2969C42.2684 38.4535 42.137 37.9387 42.2684 36.931C42.3998 35.9234 42.9913 34.4886 42.9803 34.379C42.9694 34.2695 42.8489 33.7547 41.6441 33.7438C40.4393 33.7328 39.3987 33.9738 39.2782 34.2914C39.1578 34.609 39.0263 35.3538 38.7744 36.0767C38.5225 36.7996 35.5981 43.3275 34.8314 45.0143C34.4371 45.8796 34.0975 46.5696 33.8566 47.0406C33.8566 47.0406 33.8456 47.0734 33.8128 47.1282C33.6046 47.5335 33.4842 47.7525 33.4842 47.7525C33.4842 47.7525 33.4842 47.7525 33.4842 47.7635C33.3199 48.0592 33.1446 48.333 33.057 48.333C32.9913 48.333 32.8708 47.5444 33.0789 46.471C33.517 44.2038 34.5576 40.6769 34.5466 40.5565C34.5466 40.4907 34.7437 39.8774 33.8675 39.5597C33.0132 39.2421 32.7065 39.7678 32.6298 39.7678C32.5532 39.7678 32.4984 39.954 32.4984 39.954C32.4984 39.954 33.4513 35.9891 30.6802 35.9891C28.9497 35.9891 26.5619 37.8839 25.379 39.5926C24.6342 39.9979 23.0461 40.8631 21.3484 41.7941C20.7021 42.1556 20.034 42.517 19.4097 42.8566C19.3659 42.8128 19.3221 42.758 19.2783 42.7142C15.9267 39.1326 9.72733 36.6025 9.9902 31.7941C10.0888 30.0417 10.6912 25.4415 21.896 19.8555C31.1183 15.31 38.4568 16.5696 39.7273 19.3626C41.5455 23.3494 35.7952 30.7536 26.2662 31.827C22.6298 32.2323 20.724 30.8303 20.2421 30.3045C19.7383 29.7569 19.6616 29.724 19.4754 29.8336C19.1687 29.9979 19.3659 30.4907 19.4754 30.7755C19.7602 31.5203 20.9321 32.8347 22.9146 33.4809C24.6671 34.0504 28.9278 34.3681 34.0866 32.3746C39.8587 30.1402 44.3713 23.9299 43.046 18.7273C41.7207 13.448 32.9584 11.7065 24.6671 14.6528C19.7383 16.4053 14.3933 19.1654 10.5488 22.758C5.98144 27.0296 5.25855 30.7427 5.55428 32.298C6.61671 37.8182 14.229 41.4108 17.2739 44.0723C17.1205 44.16 16.9782 44.2366 16.8577 44.3024C15.3352 45.0581 9.53018 48.0921 8.0844 51.3013C6.44146 54.9376 8.34727 57.5444 9.60685 57.8949C13.517 58.9792 17.5367 57.0296 19.6945 53.8095C21.8522 50.5893 21.5893 46.4053 20.5926 44.4885C20.5817 44.4666 20.5707 44.4447 20.5488 44.4228C20.9431 44.1928 21.3484 43.9519 21.7427 43.7218C22.5203 43.2618 23.287 42.8347 23.9442 42.4842C23.5718 43.5028 23.298 44.7186 23.1665 46.471C23.0022 48.5302 23.8456 51.2027 24.9519 52.2542C25.4447 52.7142 26.0252 52.7251 26.3976 52.7251C27.6901 52.7251 28.2706 51.6517 28.9168 50.3812C29.7054 48.8259 30.4174 47.0187 30.4174 47.0187C30.4174 47.0187 29.5302 51.9037 31.9398 51.9037C32.816 51.9037 33.7032 50.7646 34.0975 50.1841C34.0975 50.195 34.0975 50.195 34.0975 50.195C34.0975 50.195 34.1194 50.1622 34.1632 50.0855C34.2509 49.9431 34.3056 49.8555 34.3056 49.8555C34.3056 49.8555 34.3056 49.8445 34.3056 49.8336C34.6561 49.2202 35.4447 47.8292 36.6167 45.5181C38.1282 42.5389 39.5849 38.8149 39.5849 38.8149C39.5849 38.8149 39.7164 39.724 40.1654 41.2355C40.4283 42.1227 40.9759 43.0975 41.4141 44.0395C41.0636 44.5324 40.8445 44.8062 40.8445 44.8062C40.8445 44.8062 40.8445 44.8062 40.8555 44.8171C40.5707 45.1895 40.264 45.5948 39.9245 45.9891C38.7306 47.413 37.3067 49.045 37.1096 49.5159C36.8796 50.0745 36.9343 50.4798 37.3724 50.8084C37.6901 51.0493 38.2596 51.0822 38.8401 51.0493C39.9135 50.9727 40.6693 50.7098 41.0417 50.5455C41.6222 50.3374 42.3012 50.0198 42.9365 49.5488C44.1085 48.6835 44.8204 47.4458 44.7547 45.8139C44.7218 44.9157 44.4261 44.0176 44.0647 43.1742C44.1742 43.0209 44.2728 42.8675 44.3823 42.7142C46.2333 40.0088 47.6682 37.0406 47.6682 37.0406C47.6682 37.0406 47.7996 37.9497 48.2487 39.4612C48.4677 40.2279 48.9168 41.0603 49.3111 41.8708C47.5696 43.2837 46.4962 44.9267 46.1129 46C45.4228 47.9935 45.9595 48.8916 46.9781 49.0997C47.4382 49.1983 48.0953 48.9792 48.5773 48.7711C49.1906 48.574 49.9135 48.2344 50.6035 47.7306C51.7755 46.8653 52.9037 45.6605 52.8379 44.0285C52.8051 43.2837 52.6079 42.5499 52.3341 41.8379C53.8127 41.2246 55.7185 40.885 58.1501 41.1698C63.3637 41.7832 64.3932 45.0362 64.1961 46.4053C63.9989 47.7744 62.9036 48.5192 62.5422 48.7492C62.1808 48.9792 62.0603 49.0559 62.0931 49.2202C62.1369 49.4612 62.3122 49.4502 62.6189 49.4064C63.046 49.3297 65.3571 48.3002 65.4557 45.781C65.62 42.5608 62.5532 39.045 57.1315 39.0778ZM16.9124 52.6375C15.1819 54.5214 12.7722 55.2333 11.7317 54.6309C10.6145 53.9847 11.0526 51.2027 13.1775 49.2093C14.4699 47.9935 16.1348 46.8653 17.241 46.1753C17.4929 46.022 17.8653 45.8029 18.3144 45.5291C18.3911 45.4853 18.4349 45.4634 18.4349 45.4634C18.5225 45.4086 18.6101 45.3538 18.6978 45.2991C19.4754 48.1468 18.7306 50.655 16.9124 52.6375ZM29.5083 44.0723C28.9059 45.54 27.6463 49.2969 26.8796 49.0888C26.2224 48.9135 25.8171 46.0658 26.7481 43.2509C27.2191 41.8379 28.2158 40.1512 28.7963 39.494C29.7383 38.4425 30.7788 38.0921 31.0307 38.5192C31.3484 39.0778 29.8807 43.1523 29.5083 44.0723ZM39.9026 49.045C39.6506 49.1764 39.4097 49.264 39.3002 49.1983C39.2235 49.1545 39.4097 48.9792 39.4097 48.9792C39.4097 48.9792 40.7131 47.5773 41.2279 46.942C41.5236 46.5696 41.8741 46.1315 42.2465 45.6386C42.2465 45.6824 42.2465 45.7372 42.2465 45.781C42.2465 47.4568 40.6255 48.5849 39.9026 49.045ZM47.9201 47.2158C47.7339 47.0844 47.7667 46.6463 48.3911 45.2772C48.632 44.7405 49.2016 43.8423 50.1764 42.977C50.2859 43.3275 50.3626 43.6671 50.3516 43.9847C50.3407 46.0986 48.8292 46.8872 47.9201 47.2158Z" fill="#CD6799"/>
</g>
<defs>
<clipPath id="clip0">
<rect width="60" height="44.9726" fill="white" transform="translate(5.5 13.2295)"/>
</clipPath>
</defs>
</svg>
