<svg width="70" height="71" viewBox="0 0 70 71" fill="none" xmlns="http://www.w3.org/2000/svg">
<g clip-path="url(#clip0)">
<path d="M65 5.78906H5V65.7891H65V5.78906Z" fill="#F7DF1E"/>
<path d="M45.3048 52.6643C46.5133 54.6377 48.0857 56.0882 50.8667 56.0882C53.2029 56.0882 54.6952 54.9205 54.6952 53.3072C54.6952 51.3739 53.1619 50.6891 50.5905 49.5643L49.1809 48.9596C45.1124 47.2262 42.4095 45.0548 42.4095 40.4643C42.4095 36.2358 45.6314 33.0167 50.6667 33.0167C54.2514 33.0167 56.8286 34.2643 58.6857 37.531L54.2952 40.3501C53.3286 38.6167 52.2857 37.9339 50.6667 37.9339C49.0152 37.9339 47.9686 38.9815 47.9686 40.3501C47.9686 42.0415 49.0162 42.7262 51.4352 43.7739L52.8448 44.3777C57.6352 46.432 60.34 48.5262 60.34 53.2348C60.34 58.311 56.3524 61.092 50.9971 61.092C45.7609 61.092 42.3781 58.5967 40.7229 55.3262L45.3048 52.6643ZM25.3876 53.1529C26.2733 54.7243 27.079 56.0529 29.0162 56.0529C30.8686 56.0529 32.0371 55.3281 32.0371 52.5101V33.3386H37.6752V52.5862C37.6752 58.4243 34.2524 61.0815 29.2562 61.0815C24.7419 61.0815 22.1276 58.7453 20.7981 55.9315L25.3876 53.1529Z" fill="black"/>
</g>
<defs>
<clipPath id="clip0">
<rect width="60" height="60" fill="white" transform="translate(5 5.78906)"/>
</clipPath>
</defs>
</svg>
