<svg width="70" height="71" viewBox="0 0 70 71" fill="none" xmlns="http://www.w3.org/2000/svg">
<g clip-path="url(#clip0)">
<path d="M39.0029 21.3787C37.4582 20.9496 35.858 21.8541 35.4287 23.399L28.9769 46.6248C28.5478 48.1697 29.4523 49.77 30.9972 50.1991C31.2571 50.2712 31.5186 50.3057 31.7758 50.3057C33.0475 50.3057 34.2146 49.4638 34.5715 48.1788L41.0232 24.953C41.4523 23.4083 40.5478 21.8078 39.0029 21.3787Z" fill="#F16524"/>
<path d="M19.437 21.9439C18.2041 20.9185 16.3735 21.0869 15.3485 22.3198L5.67103 33.9575C4.7749 35.0351 4.77645 36.599 5.6749 37.6747L15.3523 49.2629C15.9266 49.9506 16.7515 50.3053 17.5822 50.3053C18.2385 50.3053 18.8985 50.0839 19.4416 49.6304C20.6724 48.6027 20.8369 46.7717 19.8092 45.5411L11.6826 35.8101L19.813 26.0326C20.8381 24.7995 20.6697 22.9689 19.437 21.9439Z" fill="#F16524"/>
<path d="M64.3251 33.9032L54.6477 22.3153C53.6199 21.0845 51.789 20.9202 50.5584 21.9479C49.3276 22.9757 49.1633 24.8066 50.191 26.0372L58.3175 35.7682L50.1872 45.5457C49.1619 46.7786 49.3303 48.6092 50.563 49.6343C51.1053 50.0854 51.7634 50.3053 52.4178 50.3053C53.2506 50.3053 54.0775 49.9488 54.6515 49.2582L64.329 37.6205C65.2251 36.5426 65.2235 34.9788 64.3251 33.9032Z" fill="#F16524"/>
</g>
<defs>
<clipPath id="clip0">
<rect width="60" height="60" fill="white" transform="translate(5 5.78906)"/>
</clipPath>
</defs>
</svg>
