<svg version="1.1" id="Layer_1" xmlns="http://www.w3.org/2000/svg" xmlns:xlink="http://www.w3.org/1999/xlink" x="0px" y="0px"
	 width="100%" viewBox="0 0 992 992" enable-background="new 0 0 992 992" xml:space="preserve">
<path fill="#000000" opacity="1.000000" stroke="none" 
	d="
M89.917374,573.872742 
	C88.867363,570.698547 88.669182,567.645386 86.899460,565.090210 
	C84.841415,565.278625 83.047211,566.154053 81.065773,566.443848 
	C70.853203,567.937378 66.045120,561.408447 61.787807,553.932861 
	C59.818012,550.473938 58.027119,547.025696 59.758888,542.786316 
	C60.713539,540.449280 58.393784,538.502136 58.525497,536.182556 
	C50.531181,537.086975 42.391041,526.492554 41.837719,521.079956 
	C41.267773,515.504822 41.146732,509.830292 43.497967,504.372742 
	C46.340427,497.775024 50.672234,493.313324 58.124649,492.655792 
	C59.943954,492.495300 61.863575,492.142670 61.449348,489.972809 
	C60.880543,486.993134 62.375008,484.344269 62.137711,481.454590 
	C61.438648,472.941956 69.592445,466.933350 76.303162,466.139191 
	C79.074287,465.811249 80.441727,464.856567 80.598228,461.966003 
	C80.918983,456.041595 81.207878,450.098969 81.935608,444.216492 
	C83.516426,431.438232 83.875397,418.524353 86.646606,406.066803 
	C83.946632,403.686859 81.218582,405.970215 78.243271,404.657043 
	C71.829788,401.826416 69.950859,396.169220 68.184776,391.042297 
	C65.661423,383.716888 67.680115,376.351471 72.703064,370.128265 
	C64.148026,366.321411 57.242867,351.550842 63.012825,341.052521 
	C65.914314,335.773346 69.908676,330.658966 76.179390,328.178375 
	C80.721527,326.381531 85.052025,326.728119 89.969223,328.230255 
	C96.035721,317.243195 101.445648,304.519440 118.469910,311.107666 
	C127.705925,289.880768 138.527893,269.706085 149.906967,249.018753 
	C144.691833,248.382050 140.548019,247.428040 136.427078,247.518326 
	C133.272476,247.587418 132.864914,245.005630 131.272980,243.673752 
	C126.871727,239.991592 123.422165,235.491470 123.814804,229.394897 
	C123.951782,227.267868 122.540031,225.765579 122.967369,223.456970 
	C124.818138,213.458649 132.616608,210.144592 140.561066,206.827652 
	C141.289322,206.523560 142.077896,206.363892 142.981888,206.094406 
	C142.071472,201.988388 141.259140,198.118439 140.347656,194.272003 
	C139.440109,190.442261 139.942902,185.258972 141.743729,183.535690 
	C145.912064,179.546829 150.108047,175.220779 155.597137,172.509232 
	C159.828568,170.418961 165.016159,169.638229 168.249908,170.752151 
	C171.605637,171.908096 177.015381,171.412949 178.929047,177.003555 
	C180.275513,180.937164 184.074249,180.037048 187.346359,177.961914 
	C193.623947,173.980743 200.666901,170.340714 207.814240,173.835526 
	C215.226807,177.460022 219.643097,174.435333 223.782776,169.378113 
	C229.400177,162.515610 236.865967,157.778778 243.357727,151.939865 
	C247.325165,148.371429 251.037155,144.334396 256.686462,141.758957 
	C252.678970,139.052399 250.587082,135.919678 248.663269,132.399216 
	C244.608994,124.980080 248.757080,117.242409 255.592270,111.102760 
	C258.826019,108.198105 262.585785,105.188171 267.662628,104.308876 
	C264.196716,96.162491 267.878754,89.096069 271.009308,81.959038 
	C271.794373,80.169273 273.862183,80.515358 275.296417,79.811592 
	C282.846222,76.106926 290.743286,74.143669 299.242188,75.436646 
	C301.809204,75.827179 302.646301,78.222450 304.351349,79.586937 
	C306.103851,80.989388 307.407043,83.021126 307.960419,86.104889 
	C314.146759,82.968971 320.191071,80.610443 326.588867,80.676582 
	C333.348480,80.746460 337.704865,85.044212 340.353882,91.192963 
	C352.219727,88.551720 362.538574,82.676628 373.348724,78.516121 
	C383.912323,74.450523 396.081177,73.594727 405.618866,65.865341 
	C403.162811,62.968750 401.205963,60.545910 399.126556,58.233257 
	C395.226593,53.895840 393.670593,41.829067 398.477783,35.662720 
	C402.847900,30.057030 407.321442,24.039261 415.157684,25.299049 
	C420.073059,26.089272 425.149750,27.389221 430.909668,29.569223 
	C434.129547,16.465302 443.857788,10.118475 456.025055,12.246133 
	C468.624573,14.449379 477.797241,22.582821 476.829468,37.151875 
	C479.916504,40.449360 484.248444,40.413883 487.842438,41.223820 
	C495.988678,43.059631 499.932159,48.367371 502.151581,55.422947 
	C503.040894,58.250134 504.463409,58.750450 506.791962,58.634727 
	C514.417542,58.255775 522.145142,58.141739 529.666504,58.399120 
	C536.694092,58.639595 543.927795,58.540592 550.963806,59.753452 
	C552.711182,60.054661 554.226562,59.699768 556.267395,58.948498 
	C553.897095,48.144691 558.558655,41.252460 568.492554,36.641335 
	C576.342041,32.997742 582.982178,35.585495 590.539124,37.996887 
	C592.866333,31.661341 599.096375,28.744099 605.548096,26.342424 
	C607.775085,25.513424 610.874451,24.814711 612.790771,25.719059 
	C626.612366,32.242046 635.950806,33.768700 633.415100,52.891140 
	C642.401855,55.747387 650.772461,59.379322 653.769775,69.495636 
	C654.423889,71.703400 655.668884,73.753487 653.631653,76.416992 
	C652.137634,78.370300 654.471619,80.085701 656.568298,80.744316 
	C660.336731,81.928085 663.983093,83.371666 667.895508,84.285835 
	C672.617065,85.389053 676.762512,88.760574 681.432495,90.333061 
	C686.850037,92.157257 691.722778,95.202232 697.406738,96.520248 
	C701.202087,97.400330 703.999817,101.283501 708.659363,101.531555 
	C710.896240,92.512207 716.369812,87.627205 726.191223,87.438606 
	C734.826904,87.272758 741.544983,90.137817 746.158752,97.380493 
	C758.987000,89.150490 768.288574,88.848206 777.060303,96.154205 
	C786.223999,103.786697 787.910095,112.534760 782.524048,124.508545 
	C785.223328,131.261963 792.764771,134.398758 794.895264,141.866577 
	C796.280884,146.723312 795.757751,152.715225 790.468628,157.107056 
	C809.352478,171.427292 823.861450,190.220337 842.549927,205.412064 
	C846.095459,187.586472 857.044434,182.750000 873.055542,185.014481 
	C881.135681,189.639801 885.727356,197.744766 885.601746,208.875290 
	C889.874939,210.166595 894.347168,210.348022 898.940674,210.424515 
	C902.526917,210.484222 905.303101,212.965210 907.411316,215.789001 
	C914.942383,225.876114 915.994202,236.616608 910.168701,247.841614 
	C908.848938,250.384552 905.740112,250.787567 903.574646,252.363693 
	C902.131958,253.413773 900.354309,254.003693 898.445984,254.936813 
	C899.639893,258.936737 900.614563,262.775635 901.931213,266.493500 
	C904.656006,274.187927 900.293884,279.883392 896.239197,285.274994 
	C893.749695,288.585510 894.496155,291.479797 895.958679,294.010895 
	C901.540833,303.671783 906.027039,313.874207 910.892395,323.871094 
	C912.784241,327.758209 914.485474,331.735992 916.333801,335.733002 
	C928.537231,327.147339 932.874390,331.355713 938.856262,335.619965 
	C945.768372,340.547333 949.363281,347.315948 948.087830,356.256927 
	C956.813782,357.493286 964.339661,360.528900 969.357849,368.042908 
	C970.084961,369.131683 970.765259,369.899200 970.783752,371.478912 
	C970.854858,377.551361 973.136536,383.575256 970.149353,389.668091 
	C967.344055,395.389801 964.379211,400.560150 956.902588,400.544708 
	C956.562439,407.140961 956.373596,413.488617 955.848938,419.808380 
	C955.600342,422.802582 947.833923,429.590088 944.555359,430.336060 
	C940.301392,431.303925 941.000061,434.932709 941.507935,437.586212 
	C942.844299,444.568420 943.291565,451.618011 943.918945,458.659546 
	C944.418518,464.267334 944.633972,469.905975 945.306702,475.491089 
	C945.895203,480.377197 947.076172,485.197052 945.773438,490.513580 
	C952.634216,490.476196 958.750183,490.882416 962.952820,496.469818 
	C968.052124,503.249207 970.208740,510.608978 967.740784,518.981506 
	C967.197571,520.824463 967.083557,522.268799 969.184204,523.618896 
	C979.432800,530.205505 984.043030,540.073059 980.312317,551.312256 
	C978.166565,557.776794 974.350830,564.250488 967.557800,567.814331 
	C965.885559,568.691650 964.703857,567.435486 963.266357,567.355164 
	C959.511719,567.145325 957.781799,568.439209 955.957520,572.209778 
	C953.078491,578.160767 951.663513,585.482483 944.843018,588.934631 
	C941.215027,590.770874 937.422974,591.349182 933.182800,590.541992 
	C932.358093,591.182495 933.683716,592.383423 933.135986,593.062378 
	C928.546875,598.751587 929.041748,606.110474 927.256714,612.591370 
	C925.017761,620.720276 921.343689,628.281250 919.279724,636.432739 
	C917.877747,641.969849 915.490601,647.258423 913.524963,652.651184 
	C913.062561,653.919739 912.725403,655.183167 913.156799,656.851929 
	C918.425476,655.013184 923.652527,655.329773 928.950867,656.974060 
	C934.381348,658.659180 938.590637,662.026855 940.407959,667.115845 
	C945.461121,681.265625 946.389282,684.596924 927.714111,697.347778 
	C929.881775,702.325562 932.400818,707.266785 933.414246,712.776672 
	C933.641296,714.011169 934.669922,715.580811 934.128479,716.516663 
	C931.972351,720.243347 929.865295,724.147522 926.961182,727.259033 
	C922.050903,732.520081 916.454285,737.184814 908.468323,736.209106 
	C903.877441,735.648132 899.246704,734.812134 895.848450,731.166199 
	C893.930847,729.108826 892.226990,729.160034 890.507324,731.372314 
	C887.192932,735.636108 883.187195,738.770752 877.999268,740.772522 
	C873.768555,742.404907 869.684265,742.169800 865.743713,741.114563 
	C862.676697,740.293213 860.290161,740.801697 859.003235,743.139160 
	C857.206543,746.402588 854.303406,748.845276 852.938110,752.436035 
	C851.788696,755.458679 849.290283,757.583313 846.948120,759.931091 
	C842.200256,764.690796 837.855469,769.943970 834.872864,776.247620 
	C833.965149,778.166016 830.520630,778.867126 830.000977,782.204834 
	C837.769287,786.506653 841.450317,792.752441 839.662903,802.324280 
	C837.943176,811.533691 831.399414,816.038269 824.380981,820.292542 
	C827.191223,826.710510 827.001038,832.924500 825.468323,839.092712 
	C823.434631,847.276978 816.408325,850.208191 809.641418,852.963623 
	C802.089539,856.038879 795.315979,853.935730 789.730103,848.238770 
	C787.990540,846.464539 786.699036,846.429382 784.620972,847.555786 
	C780.609619,849.730225 776.802551,852.220154 772.306946,853.604248 
	C765.892273,855.579224 760.607239,854.256592 757.028442,848.646606 
	C755.728760,846.609253 754.274353,846.860474 752.357239,847.501770 
	C746.872131,849.336548 742.950684,853.620361 738.068176,856.401123 
	C728.325684,861.950012 718.674805,867.660583 709.018799,873.359863 
	C706.959167,874.575562 705.157104,876.214783 702.395264,876.936768 
	C705.006958,880.187317 706.289978,883.465271 707.087646,887.081604 
	C708.149170,891.894592 706.848328,895.775024 703.673035,899.270020 
	C702.889893,900.131958 702.047791,900.963440 701.401062,901.922302 
	C698.005554,906.957336 693.543457,909.899597 687.235474,909.364807 
	C684.597107,909.141052 683.429016,910.128845 683.202087,913.001770 
	C681.891357,929.595886 674.506653,933.487854 660.355957,935.356018 
	C651.936707,936.467529 645.991455,933.199646 641.953430,925.731323 
	C639.924500,921.978882 635.595825,921.116211 631.532227,922.977112 
	C624.626953,926.139343 612.758240,920.582886 610.456238,913.084473 
	C609.643005,910.435425 608.754211,909.011292 605.204712,909.825989 
	C593.624329,912.484131 581.992859,915.216797 570.226501,916.663452 
	C562.428467,917.622253 554.843750,920.193665 546.746338,919.528198 
	C541.475342,919.095032 540.299377,921.746216 542.970215,926.190186 
	C546.482727,932.034546 547.857971,938.321045 546.868835,945.083130 
	C546.103821,950.312805 534.717590,959.453186 528.990784,960.385864 
	C522.557007,961.433655 517.907410,957.792908 512.860718,955.260742 
	C510.762451,954.207886 509.705841,953.829224 508.187256,955.886353 
	C504.767822,960.518616 501.087097,964.747620 495.116119,966.495911 
	C491.206055,967.640808 485.267456,967.039001 481.158875,965.280090 
	C477.802063,963.842957 474.807098,962.124695 471.920837,959.959961 
	C465.979401,955.503723 465.526917,948.748047 464.406525,942.327148 
	C464.200745,941.147888 465.462433,939.712708 466.151825,938.158875 
	C461.811737,934.798218 456.671356,933.091064 451.769714,930.778809 
	C447.809601,928.910706 445.065613,924.613342 443.977478,920.146973 
	C443.492340,918.155579 441.130157,916.392517 442.744446,913.772339 
	C443.052307,913.272583 441.084473,912.411438 439.964386,912.147522 
	C431.297638,910.105347 422.186951,909.987549 413.758820,907.815857 
	C408.405792,906.436523 402.067047,907.224365 397.272125,903.077576 
	C395.835632,901.835266 393.380615,901.364319 390.995422,901.637878 
	C389.075958,904.213928 390.324127,907.379761 389.452606,910.200073 
	C387.842010,915.412109 382.886688,920.541138 377.456543,921.258972 
	C372.963531,921.852966 368.430145,922.387573 363.912964,922.401489 
	C362.571045,922.405640 361.148865,920.643799 359.892914,919.543396 
	C356.717926,916.761597 353.846069,915.648071 350.017242,918.997192 
	C346.730682,921.871948 342.945587,924.070251 338.301758,925.005432 
	C332.635773,926.146362 327.962067,925.381714 323.740967,921.449890 
	C321.349731,919.222473 318.720795,917.248535 316.350525,915.000610 
	C311.968536,910.844971 311.115662,905.432373 312.193085,899.923462 
	C313.171021,894.923340 311.507843,891.774170 307.590607,888.896484 
	C301.968597,884.766541 296.867432,880.388916 296.664429,872.226013 
	C296.571411,868.485474 299.482910,867.265564 300.458588,864.546570 
	C282.260223,854.935791 265.976227,842.515930 248.493210,830.444153 
	C247.921997,835.557129 245.183411,839.001709 242.107162,840.903381 
	C238.283875,843.266968 233.117523,844.682129 228.627777,843.457520 
	C223.507370,842.060974 217.248962,841.169739 214.593506,835.802673 
	C211.298141,829.142212 207.238708,830.799072 201.606445,832.186523 
	C187.023605,835.778870 177.299973,823.624634 174.754272,811.607910 
	C173.635788,806.328186 174.590134,801.456055 178.791519,797.341614 
	C182.464310,793.744873 178.927612,791.062622 176.665176,788.734802 
	C172.312088,784.255737 170.141220,771.639282 173.109421,766.347229 
	C173.269455,766.061951 173.410858,765.566345 173.614868,765.536438 
	C175.730194,765.226257 177.862656,763.406006 177.569275,762.128784 
	C177.014954,759.715759 175.318756,757.408142 173.648895,755.436340 
	C167.588715,748.280151 162.200424,740.666199 156.739960,733.052002 
	C152.212952,726.739502 148.129669,720.139160 143.573471,713.861877 
	C143.287567,713.467896 142.753387,713.252136 142.474731,712.855103 
	C137.580139,705.881470 137.743378,705.994507 132.829712,712.684692 
	C124.301064,724.296875 115.515930,725.104431 102.849548,717.925110 
	C95.460159,713.736755 94.438873,706.928284 94.817886,699.650330 
	C94.921768,697.655579 93.133095,695.993469 94.050056,694.617065 
	C89.903839,690.940002 84.068855,691.984192 79.580482,688.984863 
	C76.412003,686.867554 75.888451,683.125549 73.904350,680.371887 
	C68.294044,672.585693 70.236595,665.326477 73.849136,657.549255 
	C76.711792,651.386414 82.321419,649.567688 87.690201,647.207764 
	C89.347023,646.479553 91.170090,645.932251 90.496605,643.927795 
	C88.946678,639.314880 90.834152,634.208923 88.057190,629.662048 
	C93.183105,625.883484 93.393990,617.731567 101.699348,616.043518 
	C97.432182,601.993286 93.359604,588.220581 89.917374,573.872742 
M246.707825,807.044189 
	C243.105453,810.061218 243.185410,814.915710 247.247787,817.543823 
	C254.074066,821.960144 261.049011,826.163269 268.573486,829.399658 
	C272.071991,824.736450 275.480774,820.137024 281.302185,818.890564 
	C284.761932,818.149841 288.298645,815.958496 291.948792,817.959290 
	C297.344543,820.916809 302.008606,824.860291 306.346527,829.207581 
	C307.443695,830.307068 308.282959,831.390747 308.283905,833.068604 
	C308.287872,840.207458 302.454407,846.994202 294.937103,848.119263 
	C300.488190,850.950012 305.707886,853.769714 311.064545,856.299438 
	C316.532562,858.881775 318.381805,857.901917 320.010895,852.291443 
	C320.469574,850.711792 321.232452,849.179199 322.083099,847.761353 
	C327.013733,839.542847 338.481293,836.331726 344.630402,842.350952 
	C348.327423,845.970032 350.936188,849.747437 356.690094,847.609680 
	C363.517212,845.073059 368.729156,848.469727 374.106018,851.972290 
	C378.979309,855.146973 384.080963,864.306030 383.219543,869.869263 
	C382.355469,875.449829 382.049744,881.273682 378.599731,884.710876 
	C380.060516,886.733643 381.675049,888.329529 382.500702,890.262451 
	C383.738220,893.159729 386.556305,888.405640 387.963348,891.837891 
	C388.752411,893.762695 392.121002,891.971863 394.010040,893.012085 
	C396.155121,894.193420 397.469788,891.023438 399.593109,892.303345 
	C406.746948,896.615662 415.208893,895.725952 422.838928,898.063110 
	C426.622284,899.221924 430.520782,898.672424 434.381348,900.404297 
	C440.071411,902.956787 446.411499,903.828674 450.521423,896.898926 
	C452.997253,892.724426 457.186188,890.758789 461.523285,890.334656 
	C467.282013,889.771423 468.314667,886.115234 468.623230,881.748230 
	C469.175018,873.938171 473.839355,869.450378 480.551331,866.814636 
	C487.278290,864.172913 494.593719,864.768005 500.967224,866.907227 
	C506.596710,868.796631 512.747070,871.708984 515.040527,879.260681 
	C529.370911,868.902222 540.945190,876.186707 550.100098,885.472473 
	C555.076721,890.520142 556.368225,899.718445 552.760315,907.742188 
	C556.016541,908.046448 558.846375,906.674561 561.786804,906.087463 
	C562.537354,901.338379 561.256226,896.802612 562.578857,892.195923 
	C564.071533,886.997070 569.309021,881.703247 574.476990,880.674561 
	C580.961914,879.383606 587.434692,879.027588 593.989441,879.445923 
	C594.809326,882.805969 596.014648,886.048950 596.845581,889.423767 
	C597.797119,893.288574 596.338928,896.356384 595.026855,899.765442 
	C601.443665,900.224976 606.925903,897.656555 612.301575,895.703064 
	C618.097717,893.596863 618.106506,891.946045 615.133911,886.168457 
	C611.778564,879.647034 613.573547,871.439453 619.209167,866.460876 
	C623.415894,862.744507 628.559998,862.848816 633.514343,862.992676 
	C636.429382,863.077332 637.667725,862.242737 638.738953,859.751831 
	C642.518127,850.963989 656.805481,846.804565 665.225098,851.473267 
	C673.359314,855.983765 679.065369,861.935486 679.651672,871.848267 
	C683.725891,871.622803 687.346619,874.014709 691.367676,871.637756 
	C697.439880,868.048523 702.615662,863.114502 709.310730,860.448181 
	C707.854187,855.342834 707.196533,850.267090 705.358826,845.881226 
	C702.737061,839.624023 706.615417,835.915649 709.881165,833.129272 
	C714.570679,829.128357 720.376404,826.275208 726.570679,824.527710 
	C728.900208,823.870605 730.527710,824.303772 731.928955,825.817810 
	C734.811340,828.932190 737.598816,832.100159 737.889587,836.732544 
	C738.130859,840.577515 740.349670,841.626526 743.609253,839.468994 
	C746.498291,837.556763 749.345337,835.527710 751.950500,833.252075 
	C756.167969,829.568176 755.945068,827.336304 752.190979,822.627808 
	C751.081116,821.235840 749.844604,819.880676 748.856934,818.378174 
	C744.867249,812.308655 745.359009,802.318237 751.372070,799.255554 
	C755.140808,797.335938 757.861511,793.362793 762.689758,793.414917 
	C764.026184,793.429260 764.687805,792.127625 764.565002,790.877441 
	C764.220032,787.366394 766.188416,784.076172 765.353027,780.636169 
	C766.666321,779.723816 767.821228,778.804993 769.081360,778.065369 
	C776.589722,773.658203 783.983459,769.190491 793.416748,772.514465 
	C795.786377,773.349426 796.057190,776.182068 798.251648,776.396667 
	C802.586975,776.820557 804.439758,779.597168 805.718933,783.237305 
	C806.433411,785.270569 808.046082,786.317627 810.034912,785.313843 
	C813.025574,783.804260 816.331726,782.765259 818.293518,779.577454 
	C822.756531,772.325378 828.327820,765.794861 833.452332,759.075073 
	C839.090942,751.681274 845.102234,744.454102 850.878174,737.095703 
	C852.766052,734.690674 854.632690,732.797119 852.195496,729.023926 
	C849.329956,724.587769 846.961670,718.910889 848.951538,713.739563 
	C851.219604,707.845337 848.826111,705.302002 844.457031,702.506409 
	C840.930603,700.249878 838.819031,696.755249 837.553284,692.596191 
	C834.648132,683.050354 839.491882,676.036194 845.193665,669.677429 
	C848.973755,665.461792 853.119446,660.969727 859.610413,660.738831 
	C861.693481,660.664673 861.934387,659.109497 862.773804,657.587708 
	C864.554443,654.359619 862.119690,651.076904 863.838440,647.687378 
	C865.841919,643.736389 869.102173,641.362244 872.088623,638.578491 
	C881.573120,629.737671 891.801880,629.226990 901.953308,636.937378 
	C903.332458,637.984802 904.762939,638.964539 906.157776,639.967102 
	C908.482483,636.664856 907.457703,632.991638 908.739807,630.029114 
	C900.882690,626.223877 892.523560,622.957581 891.315125,612.792725 
	C890.709412,607.697388 892.480469,602.974304 894.729736,598.291687 
	C898.947327,589.511841 902.291504,588.060242 910.721924,592.341125 
	C912.338806,593.162109 913.959229,593.996704 915.642578,594.661560 
	C918.147400,595.650818 920.435303,594.654480 920.456970,592.164551 
	C920.512085,585.828918 922.706665,579.538391 921.066650,573.136841 
	C913.107483,575.295532 904.454956,573.077271 901.033875,567.537292 
	C896.005981,559.395508 898.597717,551.728149 903.425232,544.416382 
	C901.991638,542.437988 900.588562,540.610718 899.300964,538.705383 
	C894.489136,531.585266 896.755127,524.023743 900.674500,518.322021 
	C906.079834,510.458740 914.559631,506.306702 924.743774,507.993195 
	C926.553833,508.292938 928.139526,509.081665 929.828491,507.541168 
	C934.399536,503.372253 937.210327,498.706909 935.871094,492.119263 
	C935.395508,489.780151 935.138123,487.240814 934.870361,484.854004 
	C934.647705,482.869751 935.537537,479.326019 932.347351,478.309326 
	C929.685608,477.460968 926.893860,476.791107 924.118347,476.576599 
	C918.154602,476.115692 908.993958,468.714111 909.181580,463.561096 
	C909.342896,459.128815 908.221985,454.773773 908.599670,450.486084 
	C908.855347,447.583008 908.592896,443.417236 912.568848,442.253448 
	C917.016357,440.951660 921.620728,438.168121 926.171265,442.402130 
	C926.799805,442.986938 928.315002,443.352417 929.431641,442.573700 
	C930.577576,440.924866 930.798218,439.270630 930.138000,437.350159 
	C929.294495,434.896423 928.183594,432.366028 928.118347,429.844604 
	C927.913696,421.931641 924.943054,419.512451 918.171509,423.196777 
	C913.335693,425.827789 907.638672,425.374542 904.752563,423.152832 
	C901.401917,420.573486 896.622375,417.154266 897.065247,410.893707 
	C897.291504,407.695770 895.877014,404.453705 897.202942,401.032532 
	C897.758484,399.599091 896.335693,398.538666 894.518677,397.653656 
	C888.173828,394.563080 883.375183,384.960114 885.053162,378.537872 
	C886.555603,372.787689 888.679688,366.977142 893.348938,362.988373 
	C898.173462,358.866974 904.043640,356.686310 910.027710,356.577850 
	C911.969849,350.571991 910.914185,345.481079 908.059631,340.096313 
	C900.528564,325.890350 893.695679,311.315002 886.528259,296.914886 
	C885.053772,293.952454 883.590759,290.693726 879.308777,291.410889 
	C870.642212,292.862305 865.092529,287.362396 858.836609,282.563202 
	C857.092163,283.724976 855.066833,285.096680 853.018433,286.432953 
	C849.561096,288.688202 839.890747,288.074982 836.189087,286.240112 
	C830.571960,283.455872 828.386047,278.033905 824.789734,273.601257 
	C820.626770,268.470032 822.635254,262.027679 819.810913,256.809937 
	C819.629639,256.475128 819.808594,255.628159 820.108276,255.402863 
	C821.751648,254.167191 823.681702,252.911743 822.048157,250.633957 
	C820.912048,249.049774 819.141113,247.668427 817.133545,247.470993 
	C814.396790,247.201797 812.862915,245.268555 811.969360,243.395432 
	C808.917847,236.998474 806.433777,230.346298 806.747620,223.053574 
	C806.985107,217.536804 809.272644,213.097275 813.557861,209.500717 
	C815.971313,207.475082 818.293945,205.475128 821.375793,204.606995 
	C822.426514,204.311020 823.558350,203.641388 823.219238,202.653610 
	C822.386597,200.227722 819.556702,199.851151 817.906250,198.153564 
	C817.002258,197.223831 815.755798,196.900925 814.386719,198.101913 
	C812.669434,199.608353 810.768616,201.032104 808.715515,202.000900 
	C805.277100,203.623352 802.262024,206.133148 797.878601,205.658524 
	C788.312683,204.622742 783.710022,197.217392 778.268555,190.960892 
	C776.284119,188.679169 777.184753,185.732254 778.348999,182.975540 
	C780.765869,177.252731 785.556519,175.330444 791.622314,174.591980 
	C789.358154,172.548325 787.236755,171.013123 785.610107,169.064850 
	C783.765503,166.855545 781.690308,164.868271 779.287109,163.510742 
	C776.993408,162.215103 774.216614,161.177689 771.638367,161.145981 
	C768.894409,161.112213 769.378418,164.420029 768.513611,166.226074 
	C764.857178,173.861816 756.334961,177.514938 748.765991,174.210861 
	C745.361877,172.724823 742.255615,171.052795 740.438477,167.069031 
	C739.356506,164.696976 736.715576,161.485504 732.518616,163.631638 
	C730.034607,164.901855 727.410156,163.982620 724.756409,163.428574 
	C719.725037,162.378128 718.380920,157.506683 715.024353,154.892715 
	C708.641663,149.922180 709.545410,143.064728 710.157349,136.821503 
	C710.573486,132.576309 711.543762,127.370682 716.708923,125.081238 
	C718.450012,124.309540 718.180237,122.916191 717.306335,121.322556 
	C714.637939,116.456772 711.121216,113.377098 705.220947,112.567116 
	C703.350342,112.310318 700.455750,112.903465 699.180359,111.209518 
	C696.797852,108.045143 693.738525,107.360596 689.696045,107.430748 
	C689.414124,111.207924 686.033508,113.154778 683.917847,115.966415 
	C679.218567,122.211662 673.576599,124.274117 666.095764,121.481857 
	C664.090149,120.733269 662.067749,119.954803 660.098877,119.183762 
	C650.194092,115.304825 646.758423,109.357559 653.245178,99.399940 
	C654.616028,97.295647 657.987976,97.240479 658.139771,93.699532 
	C652.706360,91.287956 646.666748,90.653267 640.828918,89.343719 
	C637.159241,88.520538 635.179138,89.973068 635.175842,94.011368 
	C635.171631,99.191299 633.476440,103.865059 629.237122,107.026672 
	C622.333740,112.175133 615.899414,111.512352 608.740417,106.369995 
	C605.995117,104.398003 603.947205,102.721718 600.625122,105.820511 
	C598.554932,107.751579 595.085449,109.810539 592.635254,109.411156 
	C584.151306,108.028290 576.822693,104.072380 572.546997,96.065979 
	C568.419495,88.337097 568.906372,80.478676 572.417664,72.733894 
	C568.332214,70.004463 563.973206,69.047897 559.200623,69.327309 
	C550.171631,69.855919 541.022827,69.904289 532.105591,69.450645 
	C525.649170,69.122185 518.988464,69.681618 512.356628,68.416252 
	C508.735840,67.725403 502.566376,66.768944 499.613251,72.600578 
	C496.627960,78.495827 492.384705,83.265358 485.441010,84.786018 
	C484.300995,85.035698 483.136292,86.156799 483.428986,87.348404 
	C484.685730,92.464653 482.230072,97.090996 481.794769,101.967392 
	C481.718414,102.822731 482.666412,103.637962 481.224670,104.422554 
	C475.705688,107.426018 471.854004,112.581551 464.326691,113.027275 
	C455.740204,113.535721 448.486237,111.486626 441.710327,107.107452 
	C439.361847,105.589661 437.824524,104.468063 435.369781,106.246246 
	C429.977692,110.152206 423.540985,111.137695 417.431946,110.277084 
	C412.921570,109.641678 407.881012,108.251953 404.247894,104.896667 
	C399.118866,100.159828 396.596649,94.158386 396.608978,87.057625 
	C396.617096,82.389755 395.192993,81.618980 391.128296,83.616264 
	C387.048309,85.621056 386.408081,88.665306 388.649109,95.404358 
	C390.865662,102.069839 387.270966,110.469421 380.652435,112.978180 
	C375.898712,114.780106 370.899078,115.982124 365.945038,117.188576 
	C362.977570,117.911255 360.622162,116.913757 358.715820,114.170235 
	C355.399811,109.397812 354.415619,104.257477 356.195953,97.585747 
	C348.029510,102.084984 339.358307,103.005119 335.161255,111.044777 
	C341.943451,118.244186 343.999939,126.578438 340.674377,131.961884 
	C336.343384,138.972977 329.794830,142.098907 322.586060,142.533157 
	C320.779785,144.415558 322.583740,145.642410 321.680389,147.311783 
	C318.424835,153.327957 313.736359,157.191040 307.163574,158.860718 
	C301.162994,160.385040 294.593933,159.874435 289.758789,157.288788 
	C285.457855,154.988831 280.724762,150.970856 279.335236,144.995102 
	C278.648682,142.042465 276.527466,140.896194 273.179016,141.766220 
	C270.649597,142.423462 268.319427,142.942627 266.319244,144.835892 
	C259.313873,151.466797 251.841278,157.583115 245.094467,164.512024 
	C238.827515,170.948120 231.180283,175.872421 224.970123,182.410629 
	C223.397751,184.066071 222.551804,185.494705 222.920471,188.072891 
	C224.013412,195.715881 225.260696,203.522293 219.941681,210.374298 
	C219.784866,210.576294 219.921860,211.006378 219.921860,211.548782 
	C225.832733,215.701859 228.758438,221.893356 230.682938,228.725281 
	C231.005325,229.869797 231.683746,231.290436 230.927872,232.077866 
	C227.519653,235.628387 227.845093,241.018097 223.456207,244.482834 
	C217.517075,249.171356 211.928116,254.810287 204.202148,254.570190 
	C198.929016,254.406326 198.445724,256.731506 197.373871,260.313538 
	C196.344193,263.754608 195.728775,267.676178 192.645432,269.970459 
	C189.351517,272.421417 185.822144,274.707977 182.088684,276.381897 
	C175.918671,279.148193 169.664108,279.820160 163.421143,275.893890 
	C160.086060,273.796448 157.168365,271.265533 154.308563,268.708557 
	C152.042374,270.259003 152.042374,270.259003 150.319366,276.668091 
	C153.103561,278.109161 156.261978,281.001160 159.260513,284.855103 
	C164.149017,291.138153 164.443497,296.031982 160.485352,302.859558 
	C158.742615,305.865662 157.209595,308.992523 155.524475,312.033020 
	C153.211426,316.206573 149.063797,316.892426 144.627853,315.616974 
	C139.505295,314.144073 136.700760,310.576538 133.762100,306.022125 
	C131.810364,310.157410 130.868866,313.945892 129.004578,317.386169 
	C126.987900,321.107635 124.773483,325.275665 127.929352,329.702820 
	C131.345245,330.219696 135.157639,329.309692 138.161453,331.275696 
	C147.192062,337.186249 148.758133,346.297150 142.370239,354.999573 
	C139.207230,359.308624 137.767944,363.428375 141.710297,368.104614 
	C143.075897,369.724457 142.541214,380.278595 140.967545,380.912079 
	C137.512665,382.302856 136.605652,385.686646 134.442444,388.030029 
	C131.704025,390.996582 128.532074,392.631256 124.645592,393.457947 
	C118.614288,394.740906 112.640251,394.682159 106.898788,392.600433 
	C105.395729,392.055450 103.635361,392.100281 103.341476,392.658691 
	C100.979355,397.147186 94.524773,399.340698 96.191536,406.210510 
	C96.899681,409.129272 97.062317,412.327484 95.573570,415.593536 
	C94.367851,418.238739 95.502464,421.188904 99.103401,422.105438 
	C100.698090,422.511322 102.237045,423.143799 103.790054,423.704498 
	C114.423767,427.543640 119.229988,433.064911 116.829483,444.723114 
	C116.394897,446.833710 115.927795,448.956726 115.747406,451.096954 
	C115.206970,457.508850 110.140297,461.190918 103.949646,459.980804 
	C100.051277,459.218781 96.580162,457.448547 92.382629,455.077850 
	C92.382629,461.020752 92.023109,465.857422 92.523438,470.603424 
	C92.803749,473.262390 94.072990,476.097260 95.691185,478.257782 
	C97.373962,480.504547 99.646271,477.949554 101.645546,477.686493 
	C116.162010,475.776398 123.617805,487.509064 120.205589,499.785950 
	C119.090080,503.799438 119.474663,506.431305 122.377640,509.090790 
	C123.580978,510.193176 124.471825,511.633392 125.526505,512.901917 
	C129.294403,517.433716 126.108612,521.859131 125.497841,526.406677 
	C124.438065,534.297302 119.838600,538.697021 112.967216,542.133057 
	C107.909882,544.661926 102.847961,544.152771 97.481262,544.280151 
	C97.992447,548.323669 93.882301,550.824768 95.022728,554.916199 
	C96.645737,560.738831 97.733727,566.712646 99.411324,572.517517 
	C102.335083,582.634277 105.114059,592.780823 107.786720,602.964355 
	C108.948921,607.392700 109.337433,614.536804 116.447113,614.591919 
	C120.977394,614.627014 123.696259,617.258789 127.184914,618.989014 
	C130.761749,620.763000 130.987732,625.007080 133.811264,627.108948 
	C143.470917,621.398621 153.527573,620.540222 161.420227,630.977417 
	C167.756149,639.356018 169.065979,649.368591 166.239609,659.332703 
	C165.352707,662.459412 165.454346,664.439941 167.234528,666.520325 
	C170.012756,669.767029 173.034714,672.805115 176.208847,676.205200 
	C173.727295,677.906189 174.856049,680.399170 175.466537,682.352539 
	C177.461227,688.734619 176.085342,693.760132 172.337494,699.482483 
	C167.956024,706.172180 161.313675,708.310547 155.030823,711.793701 
	C155.574997,712.563782 156.219681,713.330078 156.704208,714.186829 
	C158.874359,718.024170 161.496902,718.947021 165.619736,716.599243 
	C168.592484,714.906433 172.323578,714.581238 175.390945,713.010437 
	C179.986786,710.656982 183.136154,713.297852 186.353821,715.587585 
	C190.452744,718.504517 192.495605,722.923035 194.978546,727.223267 
	C200.528625,736.835571 197.323364,738.938904 189.281311,743.917542 
	C181.937485,748.463867 181.495377,747.753357 187.099014,754.478882 
	C187.626480,755.112000 188.186172,755.718262 188.734055,756.334167 
	C194.479584,762.792175 196.588135,762.599670 202.500076,756.667175 
	C211.848679,747.285950 221.704147,749.653992 228.584763,760.271484 
	C230.011292,762.472839 231.002151,764.956543 232.219818,767.361450 
	C237.364517,767.290039 242.879501,766.896179 246.745728,770.570801 
	C256.642944,779.977539 257.827240,792.865112 250.678925,804.169983 
	C249.752396,805.635254 248.759705,806.263367 246.707825,807.044189 
z"/>
<path fill="#000000" opacity="1.000000" stroke="none" 
	d="
M630.793701,177.274307 
	C637.756531,190.576965 642.813416,204.206726 647.124634,218.180145 
	C653.634399,239.278793 658.168152,260.827179 662.099487,282.498688 
	C666.143677,304.792267 667.288818,327.393829 666.105896,349.956146 
	C665.805359,355.687927 666.776978,361.753723 664.583923,367.565063 
	C663.689270,369.935638 663.585510,372.791107 667.893372,374.626953 
	C676.933167,378.479248 686.995483,379.586792 695.332153,385.379211 
	C699.164001,388.041626 700.785522,391.168030 701.133972,395.584686 
	C687.265381,398.660004 674.892944,393.979309 662.455078,389.972687 
	C660.861450,394.452911 658.889343,398.770569 659.203491,403.903961 
	C660.255981,404.345978 661.507141,405.378448 662.644043,405.264984 
	C669.089294,404.621979 673.457031,409.386200 678.836182,411.431183 
	C680.576782,412.092896 682.496704,412.733490 684.244690,413.637604 
	C692.399353,417.855377 694.855591,421.523773 695.596802,431.243317 
	C686.286987,432.331116 677.071594,431.114471 668.505554,427.873657 
	C665.155823,426.606354 662.249390,424.159058 658.294922,423.796478 
	C657.011536,423.678833 655.434021,421.072174 654.152161,422.633911 
	C652.453918,424.703003 650.084106,426.929871 650.497925,429.953552 
	C650.769836,431.940002 651.087830,434.313385 653.533936,435.312622 
	C659.763794,437.857635 664.343445,442.911011 670.015564,446.343048 
	C671.576538,447.287537 672.652588,449.842651 672.978394,451.819061 
	C673.408081,454.425598 674.268799,456.865021 675.260742,459.726440 
	C669.529358,461.643341 664.521851,459.475800 659.759399,457.642334 
	C652.789429,454.959015 646.088989,451.589661 639.888672,447.306213 
	C637.049744,445.344971 634.928223,445.262756 631.863342,448.329712 
	C627.956909,452.238800 622.918030,455.438690 617.024353,456.224609 
	C614.942017,456.502289 615.640320,458.653351 614.403564,459.489349 
	C610.037720,462.440582 605.023071,464.836853 600.319336,466.179718 
	C594.958008,467.710297 590.124512,469.992340 585.113892,472.113831 
	C583.409180,472.835602 581.632324,473.262665 581.988525,475.795410 
	C583.637268,477.301727 585.736572,476.611847 587.638000,476.615173 
	C616.966614,476.666016 646.296875,476.809937 675.622437,476.508453 
	C680.560852,476.457703 684.608826,478.159149 687.942200,480.790558 
	C692.880310,484.688873 699.045105,487.183258 703.003479,491.913330 
	C706.341858,495.902435 711.919556,496.448334 714.562805,501.050385 
	C715.422363,502.546936 717.157349,504.145844 719.009949,501.119598 
	C721.068970,507.146149 725.793457,509.721619 730.658264,512.279480 
	C735.660522,514.909668 739.671875,518.927429 743.854248,522.639771 
	C746.245728,524.762573 748.782227,526.650024 751.532410,528.158386 
	C754.221863,529.633423 756.027466,531.392395 755.710205,534.677673 
	C758.932739,533.789124 761.225769,535.019287 761.976929,537.775330 
	C762.584290,540.003418 761.970825,542.834839 759.242188,543.409607 
	C754.743347,544.357117 755.353149,547.576233 755.352905,550.653320 
	C755.347168,624.474915 755.375427,698.296570 755.325562,772.118164 
	C755.316040,786.239258 757.047485,784.331421 743.161865,784.334473 
	C589.686218,784.368103 436.210632,784.355774 282.735016,784.354919 
	C280.902008,784.354919 279.063843,784.250916 277.237061,784.354431 
	C273.437988,784.569458 271.790009,782.654236 271.730164,779.046936 
	C271.697021,777.047974 271.654938,775.048828 271.654785,773.049744 
	C271.650574,706.060364 271.653931,639.071045 271.641571,572.081665 
	C271.640961,568.817688 272.185638,565.500610 269.347198,562.758118 
	C268.511444,561.950623 268.697479,559.924927 268.683685,558.455017 
	C268.622589,551.956604 268.706635,545.456909 268.645050,538.958496 
	C268.599915,534.192627 270.401703,530.814880 275.121490,529.176025 
	C277.646667,528.299194 278.975800,526.197876 279.378082,523.453674 
	C282.588287,524.536011 284.632294,522.691467 286.683258,521.183228 
	C292.299316,517.053101 297.841553,512.821716 303.378723,508.585632 
	C304.759277,507.529449 306.313873,506.795685 306.209503,504.365936 
	C306.093353,501.661804 309.091949,503.520111 310.689117,502.336578 
	C313.454468,500.287476 316.676880,498.016968 318.874207,495.826050 
	C322.665497,492.045929 328.103058,492.349304 331.695984,488.497803 
	C335.275787,484.660492 339.911652,481.778015 344.214233,478.655670 
	C347.243744,476.457153 350.722076,475.590698 354.538361,475.607513 
	C372.868378,475.688324 391.199036,475.648071 409.529388,475.612946 
	C410.939392,475.610229 412.661865,476.099854 413.371887,474.158325 
	C413.722076,473.200775 413.765472,471.365601 413.352509,471.403259 
	C410.966553,471.620758 410.422424,468.989563 408.583160,468.626343 
	C400.350342,467.000610 393.481476,461.960571 385.717316,459.425812 
	C380.787079,457.816223 376.823639,453.925293 371.358398,453.821686 
	C369.225647,453.781281 367.524872,451.477173 366.643433,450.534698 
	C363.590668,447.270508 359.127960,445.787842 356.736938,441.669861 
	C352.552765,434.463654 350.982117,435.018494 343.325073,438.581604 
	C338.184082,440.973877 333.003052,444.882385 326.480469,443.456573 
	C324.949219,443.121857 323.211884,443.729950 321.337646,443.928864 
	C321.039795,438.585602 322.110107,434.345825 327.610870,431.497864 
	C331.287079,429.594574 333.028046,424.666718 337.864105,423.913544 
	C338.168793,423.866119 338.504974,422.042206 338.295349,421.172852 
	C338.033997,420.089020 337.252502,419.118622 336.641022,418.133087 
	C330.245300,407.825226 330.255157,407.851013 319.471802,413.660156 
	C315.823975,415.625275 312.038879,417.338562 308.417633,419.349030 
	C305.751770,420.829102 303.163757,421.249268 300.301971,419.741241 
	C300.315216,403.222626 313.346283,398.449493 325.257782,392.954742 
	C325.100067,388.918182 323.207520,385.648621 323.500519,382.005127 
	C323.729462,379.157562 321.660126,378.866455 319.859741,379.775085 
	C312.790833,383.342682 304.905151,384.245941 297.413452,385.286591 
	C290.775726,386.208649 283.797180,387.473450 276.893494,386.336700 
	C275.774780,386.152527 274.423004,386.389679 274.025818,384.918640 
	C273.627808,383.444305 274.959839,383.167511 275.777527,382.377930 
	C287.532684,371.026581 303.155853,367.948853 317.780609,362.877869 
	C322.230347,361.334930 323.888092,359.485260 323.760437,354.657318 
	C322.988098,325.451721 330.097870,297.799957 340.898682,270.919098 
	C349.899261,248.518677 362.386749,227.844955 372.847443,206.166977 
	C378.620850,194.202576 384.159607,182.102341 391.047058,170.707474 
	C393.278046,167.016434 395.611938,163.381592 398.039978,159.817261 
	C400.861115,155.675964 403.948425,155.404221 407.366425,158.908035 
	C419.493286,171.339417 431.234161,184.010376 441.301636,198.323715 
	C446.607605,205.867432 452.760376,212.871780 457.568787,220.840622 
	C458.832367,222.934738 460.746796,222.534805 462.874298,222.038300 
	C475.290100,219.140656 487.723816,215.599579 500.415833,214.983063 
	C518.433105,214.107819 536.712708,212.925995 554.044250,220.175858 
	C554.335754,220.297806 554.697693,220.251251 555.413452,220.321030 
	C558.799011,215.608795 560.682190,209.910660 563.419128,204.687805 
	C572.771118,186.841263 585.181152,171.131317 597.464417,155.328156 
	C601.441040,150.211990 606.956848,148.965485 613.121094,149.751999 
	C613.972168,149.860565 614.758606,150.061707 615.220276,150.870483 
	C620.223694,159.636307 626.869812,167.430527 630.793701,177.274307 
M535.500061,551.369446 
	C457.351166,551.372498 379.202240,551.399597 301.053436,551.316711 
	C296.546661,551.311951 293.931824,551.827148 294.122528,557.456543 
	C294.487915,568.243469 294.114105,579.056519 293.999023,589.858215 
	C293.659790,621.698608 294.105896,653.539429 293.887451,685.383179 
	C293.725677,708.958374 293.951508,732.565063 294.025421,756.153931 
	C294.043365,761.880554 295.724365,762.737305 300.700500,762.733826 
	C442.835205,762.633240 584.969971,762.653564 727.104736,762.646851 
	C733.633545,762.646545 733.649048,762.614014 733.649414,755.924072 
	C733.652954,690.105530 733.652466,624.286926 733.648376,558.468384 
	C733.647888,551.400635 733.633545,551.384949 726.457458,551.384033 
	C663.138367,551.376099 599.819214,551.374268 535.500061,551.369446 
M356.027222,304.415405 
	C354.644348,308.969116 353.072998,313.476501 351.938690,318.091309 
	C351.042908,321.735901 350.511566,325.667664 349.341766,329.033844 
	C347.841125,333.351929 347.917542,337.797089 346.679443,342.089355 
	C345.257385,347.019226 345.443329,352.412933 344.903900,357.878021 
	C346.196045,359.233978 348.482910,359.152771 349.721191,358.263000 
	C352.264923,356.435211 356.111450,356.164124 357.797729,356.359680 
	C366.419617,357.359528 374.788910,354.509827 383.593140,356.223328 
	C392.226440,357.903473 400.149353,359.726624 407.330017,365.102936 
	C414.679077,370.605408 420.064545,377.325348 422.621185,386.031525 
	C423.807343,390.070679 424.139191,394.448364 424.271332,398.690857 
	C424.530670,407.016083 424.307159,415.355133 424.419617,423.686584 
	C424.514435,430.707428 422.401550,437.074860 418.686615,442.866150 
	C415.713928,447.500305 416.156891,449.495697 421.259735,451.645203 
	C426.655975,453.918274 432.253967,455.818756 436.871307,459.666382 
	C436.043396,463.310028 435.907410,467.066132 436.524170,470.616882 
	C437.266754,474.892487 435.693390,477.121033 431.936493,478.461243 
	C430.146179,479.099976 428.855499,480.723022 429.650391,482.310638 
	C431.516876,486.038605 428.614136,486.359680 426.208130,487.173401 
	C427.758087,490.798035 426.780060,493.733063 424.024078,495.662537 
	C420.808167,497.913940 419.373718,501.625854 418.741821,504.624542 
	C417.820648,508.995880 416.134613,513.128845 415.367554,517.455505 
	C414.669067,521.395264 411.831268,525.121582 413.445496,529.516724 
	C414.563690,529.567810 415.388916,529.638428 416.214172,529.638550 
	C467.545776,529.644958 518.877380,529.645630 570.208984,529.645508 
	C570.875549,529.645508 571.545959,529.671204 572.207947,529.611389 
	C575.739868,529.292542 578.209717,525.322754 576.107544,522.569397 
	C573.693115,519.407043 573.447083,515.742554 572.117310,512.392700 
	C570.718384,508.868561 571.355225,505.234131 570.030273,501.959900 
	C567.140991,494.820190 561.895264,488.782227 560.236755,481.018433 
	C559.998230,479.902161 557.741577,478.917114 557.862427,478.079834 
	C558.235596,475.495941 553.640381,476.207672 555.048218,473.309113 
	C556.374634,470.578369 555.271179,467.785126 555.011292,464.678101 
	C559.111328,464.428162 558.847229,459.505493 562.544312,458.215942 
	C570.210022,455.542114 577.596985,452.078674 585.203430,449.219055 
	C587.364319,448.406708 588.687561,447.066101 590.281372,445.159790 
	C585.737976,439.379578 582.138977,433.357117 581.322449,425.731171 
	C580.594543,418.932068 578.812805,412.403931 580.296936,405.355713 
	C581.297791,400.602631 582.943115,396.173615 584.236389,391.609283 
	C586.089905,385.067688 590.096741,380.024139 592.850037,374.263885 
	C597.053711,365.469238 605.192383,363.372101 612.223389,360.190338 
	C618.641663,357.285889 626.285095,356.118347 633.806091,356.591034 
	C638.890076,356.910522 644.010376,356.651978 649.736816,356.651978 
	C648.855652,353.518127 650.286011,350.805969 650.547424,347.971497 
	C651.633789,336.191864 650.258301,324.411896 648.295227,312.912384 
	C646.481567,302.287903 644.890198,291.577454 642.302734,281.034302 
	C639.481506,269.538727 637.312378,257.881134 633.993652,246.488663 
	C630.024658,232.863571 626.528381,219.112885 620.964783,205.977737 
	C616.595459,195.662231 610.158203,186.206955 607.939392,174.983185 
	C607.794922,174.252701 607.540283,173.287857 606.041260,173.292816 
	C604.422241,176.357910 602.755432,179.631042 600.774658,182.707703 
	C598.755676,185.843674 595.122253,188.361084 594.499634,191.711960 
	C593.261597,198.375641 588.678284,202.944748 585.906860,208.590698 
	C582.058533,216.430420 576.465881,223.363403 574.068237,231.968338 
	C572.718262,236.813416 568.063171,240.073517 563.408447,239.939560 
	C561.793884,239.893112 560.314636,238.378143 558.571411,239.511169 
	C555.985718,241.191666 553.233887,243.295990 553.810486,237.458359 
	C553.923523,236.313461 552.916321,237.136505 552.444275,236.991684 
	C546.950867,235.306412 541.568970,232.554367 535.982117,232.057510 
	C529.219116,231.456055 523.042603,227.455795 516.266602,228.565659 
	C510.270752,229.547729 504.384705,228.054489 498.222931,229.288559 
	C492.927643,230.349106 487.591370,232.354156 482.161438,232.300491 
	C478.785583,232.267090 478.096069,235.482819 475.569153,236.019302 
	C469.182617,237.375229 462.708588,238.274353 456.978943,241.906387 
	C453.914124,243.849197 450.067017,244.268631 446.592194,243.870819 
	C444.287933,243.607010 444.382751,240.210388 443.121063,238.396011 
	C442.185150,237.050186 441.290283,235.557892 440.029816,234.577255 
	C435.790649,231.279144 432.793365,226.826996 429.862427,222.583084 
	C424.838470,215.308594 420.830231,207.343719 415.508209,200.212891 
	C411.672180,195.073120 407.667236,190.015976 405.185730,183.809082 
	C403.497833,189.402451 401.511658,194.617691 398.764862,199.416687 
	C395.407806,205.281876 394.028107,211.907867 390.891846,217.876282 
	C387.890198,223.588531 386.234192,229.996841 383.376892,235.798874 
	C380.047577,242.559525 376.946655,249.567307 374.448792,256.493500 
	C371.112030,265.745911 365.934204,274.128265 363.160889,283.726013 
	C361.234467,290.392792 358.765015,297.201385 356.027222,304.415405 
M688.333496,516.295654 
	C686.094788,514.141235 686.209473,510.111572 681.237549,509.803650 
	C679.375671,509.688324 674.921021,507.834747 673.377197,505.588593 
	C671.187683,502.402863 668.625183,502.391541 665.677612,502.387573 
	C644.349182,502.358704 623.020691,502.370422 601.692261,502.368347 
	C599.389587,502.368134 597.081116,502.343140 595.249756,504.159760 
	C599.165344,510.483032 600.616821,517.579468 602.437256,524.382263 
	C603.666687,528.976624 605.809326,529.697266 609.719421,529.688049 
	C638.879272,529.619446 668.039307,529.665833 697.199219,529.624573 
	C699.095581,529.621887 701.229248,530.233215 702.888123,528.317932 
	C702.028442,526.428955 703.148438,523.869446 699.892090,522.776794 
	C696.425049,521.613403 692.113281,521.105713 691.087646,516.255432 
	C690.876282,515.256104 689.647217,516.142029 688.333496,516.295654 
M345.739441,509.998413 
	C340.080536,511.704651 338.530853,519.330322 331.689117,519.621765 
	C330.282135,519.681702 328.699585,521.640747 328.237671,523.587708 
	C328.026428,524.478088 328.305695,525.783081 326.700897,525.523071 
	C323.645721,525.028076 324.244354,527.713135 322.411163,529.632202 
	C344.767456,529.632202 366.075104,529.593506 387.382172,529.685608 
	C389.803741,529.696045 390.494263,528.367920 391.177551,526.566589 
	C393.373138,520.778076 395.736145,515.050537 397.816132,509.221527 
	C399.735565,503.842438 398.729462,502.410858 393.134491,502.375031 
	C382.306152,502.305664 371.476410,502.424591 360.648682,502.318970 
	C357.889343,502.292053 355.964142,503.153656 354.326477,505.414337 
	C352.399750,508.074127 349.332214,509.045929 345.739441,509.998413 
z"/>
<path fill="#000000" opacity="1.000000" stroke="none" 
	d="
M763.301819,570.857178 
	C760.403503,570.004822 759.739319,567.330200 759.476013,565.433655 
	C758.841187,560.862549 762.151062,561.821899 764.664978,562.153381 
	C765.853027,563.842041 764.085632,563.914185 763.731201,564.893188 
	C765.101990,567.107910 770.479980,567.813721 766.998901,572.275635 
	C765.629333,572.208069 765.192383,570.194092 763.301819,570.857178 
z"/>
<path fill="#000000" opacity="1.000000" stroke="none" 
	d="
M256.273804,545.932251 
	C258.661011,550.641235 255.901855,555.139038 255.535339,559.813965 
	C254.861938,555.205322 253.478607,550.596924 256.273804,545.932251 
z"/>
<path fill="#000000" opacity="1.000000" stroke="none" 
	d="
M608.309570,592.349915 
	C613.036255,589.582092 618.162720,588.857300 622.653748,585.840393 
	C625.616699,583.849976 631.000732,585.463684 635.918640,585.463684 
	C634.709656,589.782654 635.923340,594.041748 634.637207,598.284241 
	C633.464417,602.152527 631.515991,605.032471 627.894958,607.031921 
	C623.268555,609.586609 623.031189,611.162964 626.448792,615.061340 
	C630.814514,620.041199 631.619873,626.377014 632.704468,632.375000 
	C634.193542,640.609802 633.070496,649.073364 633.396118,657.426147 
	C633.705872,665.370056 631.915466,672.905579 629.762573,680.420471 
	C627.506348,688.296021 622.247559,693.633423 615.037964,696.968933 
	C606.509705,700.914734 597.747314,704.144836 590.179688,710.149170 
	C584.783447,714.430664 577.317383,711.285095 575.303162,704.496460 
	C572.514771,695.098511 569.836609,685.844849 562.611145,678.503967 
	C560.808105,676.672119 560.695496,673.016418 560.608948,669.943726 
	C560.426941,663.483215 560.535217,657.013794 560.271118,650.548950 
	C560.072937,645.699219 562.053345,640.477417 564.101013,635.883667 
	C567.366577,628.557617 571.634888,621.568542 578.952698,617.574341 
	C583.816711,614.919434 588.586914,612.138123 593.382935,609.377441 
	C596.725586,607.453369 598.647705,602.975464 603.870972,604.005676 
	C605.477478,604.322510 605.986877,601.008484 605.478455,599.384155 
	C604.492676,596.234802 605.735901,594.294922 608.309570,592.349915 
z"/>
<path fill="#000000" opacity="1.000000" stroke="none" 
	d="
M387.724731,706.005859 
	C385.949371,703.423584 387.204803,700.701416 386.210052,698.244019 
	C379.674774,697.502686 374.656616,701.842285 368.982056,703.750183 
	C358.041229,707.428589 347.580475,712.515869 336.697876,716.393616 
	C330.193634,718.711304 323.177917,717.338135 316.401367,717.029907 
	C314.260071,716.932556 314.009766,714.458618 313.755676,712.712708 
	C312.682068,705.335449 312.021118,697.926392 311.562103,690.471130 
	C310.564911,674.274780 309.077057,658.108643 307.800232,641.929321 
	C307.708588,640.768311 307.671875,639.600891 307.659576,638.435913 
	C307.581940,631.082153 307.823883,630.855713 315.087311,630.639832 
	C317.190002,630.577332 319.287903,630.354431 321.605408,630.189636 
	C323.934113,653.627014 326.231781,676.751892 328.564545,700.229797 
	C339.425537,697.476074 347.975555,691.938232 357.384247,689.002258 
	C364.211273,686.871887 370.597046,682.815186 378.438812,683.499268 
	C386.287140,684.183960 389.287994,679.382568 386.017273,672.153687 
	C384.276520,668.306213 382.747559,664.998108 386.964447,661.735107 
	C387.717377,661.152405 387.509033,659.247864 387.629333,657.943054 
	C387.918091,654.812256 387.000244,651.782654 388.410248,648.476501 
	C389.699677,645.453186 387.817291,642.983643 383.916351,643.401001 
	C382.448425,643.558167 380.987122,643.777039 379.478943,643.973511 
	C378.382355,642.670349 379.583923,641.444885 379.657562,640.216980 
	C380.128113,632.369446 380.430725,632.973389 388.494232,629.554871 
	C397.646820,625.674561 407.409180,623.302490 416.116425,618.327271 
	C417.286682,617.658630 418.599609,617.182861 420.288361,617.379761 
	C425.872986,618.030823 431.504822,617.781677 437.497955,617.079773 
	C437.993042,622.591553 436.306793,628.025757 438.248901,633.231995 
	C431.900757,635.576660 425.963348,638.619629 419.674408,639.818787 
	C414.799805,640.748291 410.122375,643.156189 404.909637,642.487610 
	C402.036011,642.119019 400.332428,643.761841 399.385376,646.445740 
	C398.078827,650.148499 398.182098,653.854431 398.644653,657.481750 
	C411.914764,652.402222 423.803009,643.367188 439.425537,647.181458 
	C439.880432,649.807373 438.715851,653.318848 439.862152,656.666687 
	C440.438538,658.350037 439.302277,659.290710 437.986115,659.655579 
	C427.926971,662.444031 418.293732,666.617004 408.046021,668.798889 
	C405.348083,669.373413 402.601868,670.023499 400.098877,671.136169 
	C396.790222,672.606873 398.299927,675.868469 398.533966,678.170532 
	C398.808929,680.875305 399.559784,683.479248 399.448914,686.324463 
	C399.251587,691.388428 402.552643,692.790405 407.178680,690.536255 
	C414.962158,686.743713 423.088898,683.572693 431.077393,680.363098 
	C436.273560,678.275330 442.837585,677.306213 449.258789,678.866150 
	C450.587555,683.928101 448.601349,689.135986 446.996094,694.158447 
	C446.130157,696.867737 442.310486,697.349304 439.801727,698.723511 
	C432.298615,702.833801 423.952179,704.765564 415.846008,707.249817 
	C408.969299,709.357300 401.814697,709.795898 394.660431,709.227356 
	C392.214600,709.032959 389.769318,708.255310 387.724731,706.005859 
z"/>
<path fill="#000000" opacity="1.000000" stroke="none" 
	d="
M525.866638,623.094604 
	C528.194885,619.413574 530.538818,616.025879 529.235229,611.646729 
	C531.804932,611.646729 534.099976,611.646729 536.395020,611.646729 
	C538.697693,611.646729 541.000366,611.646729 543.348511,611.646729 
	C543.348511,620.883606 543.036743,630.163757 543.428406,639.414185 
	C543.904175,650.653015 544.984009,661.862732 545.595581,673.104126 
	C545.971313,680.011597 546.944763,686.944580 547.360596,693.896606 
	C547.546875,697.011902 546.452148,698.328918 543.129822,698.422424 
	C535.063049,698.649231 535.497620,698.687744 533.482971,690.889526 
	C531.060547,681.512939 530.869324,671.922729 529.626648,662.436951 
	C529.519958,661.622070 529.588562,660.750122 528.289124,659.935242 
	C526.242493,661.211792 523.823059,662.440002 521.728516,664.082458 
	C516.498901,668.183350 510.505219,669.409851 504.068787,669.354248 
	C498.741180,669.308289 493.400452,669.566345 488.088715,669.271545 
	C483.596985,669.022217 479.117371,668.211548 477.212006,663.189514 
	C473.880066,663.109680 474.406036,665.489990 474.366364,667.368469 
	C474.188354,675.800476 475.863342,684.137390 475.473846,692.616455 
	C475.284485,696.738403 474.506927,698.581482 469.903564,698.474365 
	C461.001068,698.266968 459.673767,697.239197 459.658661,688.111755 
	C459.629181,670.296326 459.698792,652.480530 459.612640,634.665466 
	C459.591949,630.385925 459.334656,626.135376 461.142670,621.738037 
	C463.824951,622.756165 466.582489,623.171143 469.064606,622.509277 
	C472.860413,621.497131 474.669617,622.953308 476.419647,626.112122 
	C481.173462,634.692932 487.694855,642.035034 494.327240,649.126831 
	C498.155090,653.219849 501.662170,648.329163 504.961395,646.685181 
	C511.297180,643.527893 516.519470,638.701904 520.866516,633.270813 
	C523.068604,630.519531 525.665222,627.396240 525.866638,623.094604 
z"/>
<path fill="#000000" opacity="1.000000" stroke="none" 
	d="
M688.694153,683.455811 
	C686.007996,680.354553 685.238159,676.598999 683.326660,673.341858 
	C679.387207,666.629211 676.187439,659.539917 669.737549,654.712341 
	C668.974426,654.141052 668.789795,653.415344 669.012878,651.494507 
	C666.386902,656.384216 667.306152,660.918152 666.664856,665.069641 
	C665.303650,673.881470 665.065247,682.865356 664.328491,691.775574 
	C664.028320,695.405701 663.582581,699.023987 663.294861,702.654907 
	C663.146667,704.524963 662.166260,705.307983 660.404297,705.314026 
	C657.241455,705.324890 654.078430,705.299194 650.915833,705.329346 
	C648.559814,705.351807 647.605530,704.076233 647.706726,701.889099 
	C648.208740,691.041565 647.412476,680.211548 648.308289,669.306030 
	C649.083130,659.873779 650.706482,650.548401 651.490479,641.120117 
	C652.007751,634.900879 652.770081,628.485168 654.162415,622.327576 
	C654.888367,619.117310 656.184509,615.093750 661.494019,616.499817 
	C663.666260,617.075073 666.117981,616.594971 668.966919,616.594971 
	C668.348389,628.736755 678.417603,635.405884 684.195190,644.424622 
	C688.955078,651.854614 694.635071,658.704468 698.799500,666.518921 
	C700.065552,668.894714 701.710754,670.802124 703.598938,673.151489 
	C705.905029,661.769226 708.546875,650.885681 710.104553,639.849060 
	C710.635498,636.087524 712.065491,632.523499 712.143677,628.631775 
	C712.189026,626.375366 713.314087,623.315430 716.812622,624.324280 
	C719.737488,625.167603 724.411255,622.764771 724.471008,629.252502 
	C724.596069,642.842163 721.139954,655.848267 718.994690,669.069580 
	C717.482849,678.387207 715.658630,687.642944 713.513000,696.845703 
	C712.700745,700.329590 711.110718,701.384827 707.725159,701.419128 
	C696.410950,701.533447 698.472046,701.303528 692.579285,690.688049 
	C691.304016,688.390564 690.721863,685.710632 688.694153,683.455811 
z"/>
<path fill="#000000" opacity="1.000000" stroke="none" 
	d="
M538.410461,391.634216 
	C541.990906,398.169281 545.467407,404.501251 547.509888,411.318085 
	C548.258057,413.815216 548.964050,416.840759 548.473267,419.852631 
	C548.031128,422.566010 548.380005,425.408264 548.380005,428.527618 
	C543.958435,429.414856 539.794678,429.423340 537.979309,423.631073 
	C536.343567,418.412292 531.959778,414.533783 530.361877,409.447296 
	C528.829712,404.570007 524.131409,402.168457 522.543701,397.495483 
	C521.761047,395.191864 518.736084,396.247162 517.046448,394.690765 
	C513.562378,391.481323 509.607391,388.924133 505.058105,387.228729 
	C503.221191,386.544250 502.249664,386.637634 500.644836,387.690155 
	C490.309235,394.468475 483.730835,403.865387 478.907440,415.196777 
	C477.459686,418.597809 477.208221,423.125916 473.353333,425.820282 
	C470.273163,425.185028 466.840393,425.112305 463.141876,426.208527 
	C463.657349,421.596283 463.928040,417.344696 463.380432,413.091156 
	C463.001556,410.148468 465.250214,408.017426 465.803284,405.260376 
	C467.720154,395.705566 470.093292,386.378632 477.362823,378.947754 
	C482.832947,373.356232 489.550262,373.207092 496.404144,372.660522 
	C504.729797,371.996582 513.384766,371.959839 520.974121,374.752808 
	C527.346008,377.097687 534.626221,380.121552 537.807678,387.469757 
	C538.305847,388.620361 538.150879,390.053772 538.410461,391.634216 
z"/>
<path fill="#000000" opacity="1.000000" stroke="none" 
	d="
M601.505249,271.417358 
	C599.586243,273.047699 598.298828,275.310059 595.326050,274.320129 
	C593.212280,273.616272 593.653137,276.761871 592.350830,276.883240 
	C587.191406,277.364014 583.929626,281.946442 578.595581,282.653442 
	C575.605591,283.049713 573.230103,287.257721 569.332825,287.452911 
	C562.714966,287.784393 557.373352,292.154724 550.842102,293.064972 
	C545.644348,293.789398 540.445312,292.390076 535.088074,294.213898 
	C535.307312,292.284760 535.950806,290.698303 535.554199,289.439545 
	C533.251648,282.131927 538.431641,279.648712 543.426331,277.582184 
	C548.657837,275.417694 553.486572,272.555145 558.510559,270.040588 
	C565.859009,266.362640 573.807373,263.950195 581.081238,260.403290 
	C588.592468,256.740601 595.967041,255.579697 603.904358,255.694275 
	C605.927490,255.723465 608.865295,254.788406 609.470154,257.580017 
	C610.051086,260.260956 610.956055,263.608002 609.385742,265.902374 
	C607.662292,268.420563 605.520691,271.355927 601.505249,271.417358 
z"/>
<path fill="#000000" opacity="1.000000" stroke="none" 
	d="
M406.831299,268.191101 
	C401.829071,264.949310 401.572266,264.124512 403.354614,256.947357 
	C413.056061,256.408630 422.769958,255.538498 431.559967,261.860748 
	C433.726959,263.419342 436.442596,264.457672 438.919159,265.683838 
	C445.963470,269.171631 451.880249,274.411743 458.883057,277.991028 
	C463.230560,280.213135 465.384766,284.113403 464.435211,289.499481 
	C463.979553,292.084137 463.387268,293.251953 460.592865,293.409027 
	C451.976807,293.893372 443.893219,293.532043 437.231140,286.605194 
	C435.696136,285.009155 432.462006,283.974854 429.807709,283.246063 
	C428.176453,282.798157 427.089752,282.035461 426.770264,280.393677 
	C426.413391,278.559814 425.555847,277.797699 423.616974,278.401093 
	C423.118622,278.556183 422.204773,278.258026 421.848053,277.848846 
	C418.526398,274.038483 413.619507,272.894531 409.379395,270.779663 
	C407.833191,270.008453 409.201508,267.608002 406.831299,268.191101 
z"/>
<path fill="#000000" opacity="1.000000" stroke="none" 
	d="
M596.343506,236.777756 
	C593.359436,234.634735 589.996826,235.433960 587.070129,234.999146 
	C584.021606,234.546204 583.188049,234.068802 583.460266,230.857529 
	C583.899658,225.676193 585.512024,221.696854 589.364868,217.775864 
	C594.040039,213.018005 597.348511,206.906296 601.177429,201.331650 
	C603.766663,197.561935 606.422424,197.575317 608.258850,201.763809 
	C609.734375,205.129044 611.240784,208.420197 613.823547,211.534683 
	C614.981567,212.080582 615.402954,208.655930 616.521423,210.197205 
	C619.013306,213.630981 623.609192,218.329773 622.707031,220.855148 
	C620.811157,226.161957 624.537231,230.072632 623.766418,234.642227 
	C623.712585,234.961319 623.759460,235.297379 623.759460,236.711884 
	C614.740723,236.711884 605.735352,236.711884 596.343506,236.777756 
z"/>
<path fill="#000000" opacity="1.000000" stroke="none" 
	d="
M573.308716,313.651062 
	C578.084290,313.838257 582.446106,314.012207 586.806763,314.210449 
	C589.774963,314.345367 591.959961,316.907013 592.798401,318.638947 
	C596.470032,326.223083 596.404358,334.427063 594.240723,342.470490 
	C593.618469,344.783539 591.734070,345.765106 588.620789,345.975739 
	C583.354492,346.332062 578.016479,345.687439 572.809326,346.803802 
	C571.942505,346.989624 570.938416,347.240692 570.535339,346.473663 
	C568.526184,342.650299 563.670105,340.438049 564.481445,334.974426 
	C565.259583,329.734192 564.664734,324.399567 564.988098,319.093384 
	C565.349182,313.168030 568.410400,312.765656 573.308716,313.651062 
z"/>
<path fill="#000000" opacity="1.000000" stroke="none" 
	d="
M422.961182,311.840302 
	C430.778015,310.207642 438.360138,310.354340 445.952087,311.138275 
	C446.574371,311.202545 447.622040,311.420288 447.707245,311.759094 
	C448.683777,315.641693 452.861145,317.793671 453.624664,321.231293 
	C454.282318,324.192474 454.805023,328.357544 453.802582,330.737671 
	C452.642944,333.490875 451.415100,336.903687 449.163818,339.131134 
	C446.600861,341.667023 443.119293,341.904388 439.410919,341.479645 
	C434.862976,340.958710 430.191620,341.625427 425.670593,340.452454 
	C422.226196,339.558838 419.743469,338.247437 420.281555,333.706116 
	C420.864929,328.782410 420.737762,323.738220 420.494324,318.767456 
	C420.363037,316.086365 420.835480,313.917023 422.961182,311.840302 
z"/>
<path fill="#000000" opacity="1.000000" stroke="none" 
	d="
M422.652466,226.068115 
	C425.685852,229.165314 428.132935,232.211777 427.901978,237.238892 
	C414.833221,241.507599 401.026184,243.352402 387.069305,245.113602 
	C387.097290,238.305069 389.734100,232.362366 392.475708,226.343719 
	C393.577698,223.924561 397.151764,221.880188 394.498840,218.173355 
	C393.818573,217.222885 402.975861,209.695572 404.583252,209.705215 
	C406.094910,209.714279 406.732239,210.547333 407.600891,211.738876 
	C409.244568,213.993637 411.170593,216.230499 413.449707,217.785294 
	C416.140259,219.620804 418.428772,223.436462 422.787048,220.773239 
	C423.662903,220.238052 425.085175,220.850677 425.544128,222.223114 
	C425.443024,224.209930 421.505585,222.905212 422.652466,226.068115 
z"/>
<path fill="#000000" opacity="1.000000" stroke="none" 
	d="
M504.664673,368.609009 
	C500.927673,368.873688 497.663971,369.580109 495.144531,365.948761 
	C492.037231,361.469971 486.724670,358.385193 487.139038,351.828583 
	C487.297791,349.316589 489.522583,348.219788 490.695496,348.366486 
	C494.866638,348.888184 499.007294,348.515930 503.151764,348.637115 
	C507.271912,348.757660 511.398346,348.663513 515.123474,348.663513 
	C517.963501,356.336273 512.828247,361.400513 509.118408,366.961517 
	C508.133789,368.437408 507.015564,369.613800 504.664673,368.609009 
z"/>
</svg>